<?xml version="1.0" encoding="utf-8"?>
<!-- Generator: Adobe Illustrator 27.0.0, SVG Export Plug-In . SVG Version: 6.00 Build 0)  -->
<svg version="1.1" id="Layer_1" xmlns="http://www.w3.org/2000/svg" xmlns:xlink="http://www.w3.org/1999/xlink" x="0px" y="0px"
	 viewBox="0 0 1280 1024" style="enable-background:new 0 0 1280 1024;" xml:space="preserve">
<style type="text/css">
	.st0{font-family:'MyriadPro-Regular';}
	.st1{font-size:12px;}
	.st2{fill:#FFFFFF;}
	.st3{opacity:0.13;}
	.st4{fill:#FF0000;}
</style>
<text transform="matrix(1 0 0 1 203.3335 353.5786)" class="st0 st1">J</text>
<path class="st2" d="M123.21,592.81c0,3.95,0.86,6.99,2.57,9.11c1.71,2.13,4.13,3.19,7.24,3.19h14.95v30.22h-18.69
	c-12.05,0-21.37-3.74-27.96-11.21c-6.6-7.48-9.89-18.02-9.89-31.62V408.07h31.78V592.81z"/>
<path class="st2" d="M189.26,624.51c-9.87-8.25-14.8-20.79-14.8-37.62c0-15.99,4.52-27.98,13.55-35.98
	c9.03-7.99,22.69-11.99,40.97-11.99h45.95l2.18,25.54h-47.97c-8.31,0-14.51,1.84-18.61,5.53c-4.1,3.69-6.15,9.32-6.15,16.9
	c0,8.2,2.73,14.28,8.18,18.22c5.45,3.95,13.73,5.92,24.84,5.92c12.15,0,21.21-1.3,27.18-3.89c5.97-2.59,8.96-6.64,8.96-12.15
	l3.27,22.74c-2.8,4.36-6.26,7.94-10.36,10.75c-4.1,2.8-8.85,4.91-14.25,6.31c-5.4,1.4-11.48,2.1-18.22,2.1
	C214.02,636.89,199.12,632.76,189.26,624.51z M273.52,532.06c0-10.59-2.83-18.82-8.49-24.69c-5.66-5.87-13.68-8.8-24.06-8.8
	c-6.44,0-12.75,0.99-18.93,2.96c-6.18,1.97-11.66,4.73-16.43,8.25L182.4,493.9c6.13-7.37,14.2-13.11,24.22-17.21
	c10.02-4.1,21.16-6.15,33.41-6.15c13.4,0,24.87,2.36,34.42,7.09c9.55,4.73,16.82,11.58,21.81,20.56c4.98,8.98,7.48,19.81,7.48,32.48
	v103.89h-30.22V532.06z"/>
<path class="st2" d="M379.52,628.63c-10.44-5.5-18.41-13.5-23.91-23.99c-5.51-10.49-8.26-23.16-8.26-38.01v-26.63
	c0-14.64,2.75-27.15,8.26-37.54c5.5-10.38,13.47-18.3,23.91-23.75c10.44-5.45,23.03-8.18,37.77-8.18c8.41,0,16.33,1.01,23.75,3.04
	c7.42,2.02,14.1,4.96,20.02,8.8c5.92,3.84,10.85,8.52,14.8,14.02l-22.9,20.56c-4.57-5.19-9.92-9.19-16.04-11.99
	c-6.13-2.8-12.51-4.21-19.16-4.21c-12.25,0-21.76,3.43-28.5,10.28c-6.75,6.85-10.12,16.51-10.12,28.97v26.63
	c0,12.77,3.35,22.64,10.05,29.59c6.7,6.96,16.22,10.44,28.58,10.44c6.75,0,13.19-1.5,19.31-4.52c6.13-3.01,11.42-7.27,15.89-12.77
	l22.9,22.12c-4.05,5.4-9.03,10-14.95,13.79c-5.92,3.79-12.59,6.67-20.02,8.64c-7.43,1.97-15.29,2.96-23.6,2.96
	C402.55,636.89,389.96,634.14,379.52,628.63z"/>
<path class="st2" d="M536.92,628.63c-9.97-5.5-17.58-13.52-22.82-24.07c-5.25-10.54-7.87-23.23-7.87-38.08v-26.32
	c0-14.64,2.62-27.18,7.87-37.62c5.24-10.44,12.85-18.38,22.82-23.83c9.97-5.45,21.96-8.18,35.98-8.18c14.02,0,26.01,2.73,35.98,8.18
	c9.97,5.45,17.57,13.4,22.82,23.83c5.24,10.44,7.87,22.97,7.87,37.62v26.79c0,14.75-2.62,27.34-7.87,37.77
	c-5.24,10.44-12.85,18.41-22.82,23.91c-9.97,5.5-21.96,8.25-35.98,8.25C558.88,636.89,546.89,634.14,536.92,628.63z M598.68,596.24
	c6.07-6.96,9.11-16.72,9.11-29.28v-26.79c0-12.56-3.04-22.27-9.11-29.13c-6.07-6.85-14.67-10.28-25.78-10.28s-19.7,3.43-25.78,10.28
	c-6.08,6.85-9.11,16.56-9.11,29.13v26.79c0,12.57,3.04,22.33,9.11,29.28c6.07,6.96,14.67,10.44,25.78,10.44
	S592.6,603.19,598.68,596.24z"/>
<path class="st2" d="M716.51,592.81c0,3.95,0.86,6.99,2.57,9.11c1.71,2.13,4.13,3.19,7.24,3.19h14.95v30.22h-18.69
	c-12.05,0-21.37-3.74-27.96-11.21c-6.6-7.48-9.89-18.02-9.89-31.62V408.07h31.78V592.81z"/>
<path class="st3" d="M835.48,608.97c11.79-2.17,21.96-7.6,30.51-16.29c8.55-8.68,15.14-20.36,19.74-35.02l5.47-17.38
	c4.8-15.25,6.34-29.08,4.63-41.49c-1.71-12.4-6.53-22.95-14.46-31.65c-7.93-8.7-18.73-15.2-32.4-19.49
	c-12.88-4.05-24.88-4.28-36.02-0.71c-11.14,3.58-21.02,10.7-29.66,21.37c-8.63,10.67-15.63,24.53-20.99,41.57l-3.18,10.1
	l104.01,32.7l7.66-24.37l-75.19-23.64c4.85-12.3,11.17-21.06,18.96-26.29c7.79-5.22,16.4-6.36,25.81-3.4
	c11.49,3.61,19.2,10.17,23.12,19.68c3.92,9.51,3.72,21.15-0.61,34.91l-6.17,19.61c-4.02,12.78-10.47,21.53-19.35,26.24
	c-8.88,4.72-19.52,5.13-31.9,1.24c-6.14-1.93-11.84-5.08-17.11-9.46c-5.26-4.37-9.57-9.54-12.93-15.49l-26.17,13.65
	c5.32,9.73,12.11,18.09,20.36,25.1c8.25,7,17.18,12.01,26.79,15.03C810.67,609.99,823.7,611.15,835.48,608.97z M923.98,386.16
	l-16.14-25l-59.08,39.39l14.21,21.28L923.98,386.16z"/>
<path class="st2" d="M948.13,472.87h31.78v161.68h-31.78V472.87z M1026.48,503.4c-4.26-1.76-9.19-2.65-14.8-2.65
	c-10.07,0-17.89,2.78-23.44,8.33c-5.56,5.56-8.33,13.27-8.33,23.13l-3.27-31.15c4.98-9.66,11.42-17.16,19.31-22.51
	c7.89-5.35,16.61-8.02,26.17-8.02c7.37,0,14.04,1.07,20.02,3.19c5.97,2.13,11.19,5.27,15.65,9.42l-20.72,28.04
	C1034.26,507.76,1030.73,505.17,1026.48,503.4z"/>
<path class="st2" d="M1109.03,628.48c-10.59-5.61-18.67-13.84-24.22-24.69c-5.56-10.85-8.33-23.96-8.33-39.33v-18.22
	c0-15.99,2.67-29.65,8.02-40.97c5.35-11.32,13.11-19.94,23.29-25.86c10.18-5.92,22.43-8.88,36.76-8.88
	c13.5,0,25.02,3.38,34.58,10.12c9.55,6.75,16.85,16.51,21.88,29.28c5.04,12.77,7.55,28.09,7.55,45.95v10.59h-109.03v-25.54h78.82
	c-0.93-13.19-4.34-23.44-10.2-30.76c-5.87-7.32-13.73-10.98-23.6-10.98c-12.05,0-21.37,3.95-27.96,11.84
	c-6.6,7.89-9.89,19.06-9.89,33.49v20.56c0,13.4,3.53,23.68,10.59,30.84c7.06,7.17,17.08,10.75,30.06,10.75
	c6.44,0,12.82-1.3,19.16-3.89c6.33-2.59,11.99-6.23,16.98-10.9l20.87,20.87c-8,7.69-16.98,13.63-26.95,17.83
	c-9.97,4.21-19.99,6.31-30.06,6.31C1132.39,636.89,1119.62,634.09,1109.03,628.48z"/>
<path class="st4" d="M857.63,643.27c11.81-2.01,22.06-7.31,30.73-15.88c8.67-8.57,15.41-20.15,20.21-34.75l5.7-17.31
	c5-15.19,6.73-29,5.19-41.42c-1.54-12.42-6.22-23.04-14.03-31.84c-7.82-8.8-18.53-15.45-32.14-19.93
	c-12.82-4.22-24.83-4.62-36.01-1.19c-11.18,3.43-21.16,10.42-29.94,20.97c-8.78,10.56-15.96,24.32-21.54,41.28l-3.31,10.06
	l103.57,34.09l7.99-24.26l-74.86-24.64c5.01-12.23,11.45-20.91,19.31-26.03c7.86-5.12,16.48-6.14,25.85-3.05
	c11.44,3.77,19.06,10.43,22.86,19.99c3.8,9.56,3.44,21.19-1.08,34.9l-6.43,19.53c-4.19,12.72-10.75,21.39-19.7,25.98
	c-8.95,4.6-19.58,4.87-31.92,0.81c-6.11-2.01-11.77-5.24-16.98-9.69c-5.2-4.44-9.45-9.67-12.72-15.66L772,598.53
	c5.19,9.8,11.87,18.25,20.02,25.37c8.15,7.11,17.02,12.24,26.58,15.39C832.81,643.96,845.82,645.29,857.63,643.27z M949.1,421.67
	l-15.81-25.21l-59.6,38.6l13.92,21.47L949.1,421.67z"/>
</svg>
